# xmcd
#
# Track frame offsets:
#	150
#	20661
#	47309
#	73383
#	85063
#	103051
#	136753
#	154626
#	175252
#	193355
#	217996
#	236730
#	255521
#	298800
#	315297
#
# Disc length: 4644 seconds
#
# Revision: 0
# Processed by: cddbd v1.5PL3 Copyright (c) Steve Scherf et al.
# Submitted via: dBpowerAMP V4.0
#
DISCID=d212220f
DTITLE=MOUNT RUSHMORE - '69 - HIGH ON
DYEAR=1969
DGENRE=Blues
TTITLE0=it's just the way i feel
TTITLE1=10:09 blues
TTITLE2=toe jam
TTITLE3=v-8 ford blues
TTITLE4=love is the reason
TTITLE5=i'm comin' home
TTITLE6=king of earrings
TTITLE7=somebody else's games
TTITLE8=stone free
TTITLE9=without no smog
TTITLE10=ocean
TTITLE11=i don't believe in statues
TTITLE12=lookink back
TTITLE13=('cause) she's so good to me
TTITLE14=medley - fanny mae/dope song
EXTD=
EXTT0=
EXTT1=
EXTT2=
EXTT3=
EXTT4=
EXTT5=
EXTT6=
EXTT7=
EXTT8=
EXTT9=
EXTT10=
EXTT11=
EXTT12=
EXTT13=
EXTT14=
PLAYORDER=
